{"title":"syfy original Sharktopus Vs. Pteracuda 2014 tvrip_jb","uid":10726601,"size":699257170,"categoryP":"video","categoryS":"movies","magnet":"?xt=urn:btih:38a41f795464837c225d7e58c5d168a19a8d79b2&amp;dn=syfy+original+Sharktopus+Vs.+Pteracuda+2014+tvrip_jb&amp;tr=udp%3A%2F%2Ftracker.openbittorrent.com%3A80&amp;tr=udp%3A%2F%2Fopen.demonii.com%3A1337&amp;tr=udp%3A%2F%2Ftracker.coppersurfer.tk%3A6969&amp;tr=udp%3A%2F%2Fexodus.desync.com%3A6969","seeders":2,"leechers":0,"uploader":"xxxlavalxxx","files":-1,"time":1407575582,"description":"[IMG]http://i.imgur.com/89XvY5Z.jpg[/IMG]\n &lt;a href=&quot;\nhttp://www.imdb.com/title/tt3743126/&quot; rel=&quot;nofollow&quot; target=&quot;_NEW&quot;&gt;\nhttp://www.imdb.com/title/tt3743126/&lt;/a&gt;\n\n\nSHARKTOPUS VS PTERACUDA finds an American scientist up to no good (as usual) by creating the half-pterodactyl, half-barracuda: Pteracuda. When the creature inevitably escapes, it's up to Sharktopus to stop him. \n\nDirector: Kevin O'Neill\nWriter: Matt Yamashita\nStars: Robert Carradine, Akari Endo, Tony Evangelista \nGenres: Sci-Fi\nCountry: USA\nLanguage: English\n\n\nFormat                                   : AVI\nFormat/Info                              : Audio Video Interleave\nFile size                                : 667 MiB\nDuration                                 : 1h 24mn\nOverall bit rate                         : 1 101 Kbps\nWriting application                      : FairUse Wizard - http://fairusewizard.com\nWriting library                          : The best and REALLY easy backup tool\n\nVideo\nID                                       : 0\nFormat                                   : MPEG-4 Visual\nFormat profile                           : Advanced Simple@L5\nFormat settings, BVOP                    : 1\nFormat settings, QPel                    : No\nFormat settings, GMC                     : No warppoints\nFormat settings, Matrix                  : Default (MPEG)\nMuxing mode                              : Packed bitstream\nCodec ID                                 : XVID\nCodec ID/Hint                            : XviD\nDuration                                 : 1h 24mn\nBit rate                                 : 900 Kbps\nWidth                                    : 632 pixels\nHeight                                   : 360 pixels\nDisplay aspect ratio                     : 16:9\nFrame rate                               : 23.976 fps\nColor space                              : YUV\nChroma subsampling                       : 4:2:0\nBit depth                                : 8 bits\nScan type                                : Progressive\nCompression mode                         : Lossy\nBits/(Pixel*Frame)                       : 0.165\nStream size                              : 545 MiB (82%)\nWriting library                          : XviD 1.2.1 (UTC 2008-12-04)\n\nAudio\nID                                       : 1\nFormat                                   : AC-3\nFormat/Info                              : Audio Coding 3\nMode extension                           : CM (complete main)\nCodec ID                                 : 2000\nDuration                                 : 1h 24mn\nBit rate mode                            : Constant\nBit rate                                 : 192 Kbps\nChannel(s)                               : 2 channels\nChannel positions                        : Front: L R\nSampling rate                            : 48.0 KHz\nBit depth                                : 16 bits\nCompression mode                         : Lossy\nStream size                              : 116 MiB (17%)\nAlignment                                : Split accross interleaves\nInterleave, duration                     : 42 ms (1.00 video frame)\nInterleave, preload duration             : 500 ms\n\n\n\n\nscreens\n &lt;a href=&quot;\nhttp://i.imgur.com/GKtPLz0.jpg&quot; rel=&quot;nofollow&quot; target=&quot;_NEW&quot;&gt;\nhttp://i.imgur.com/GKtPLz0.jpg&lt;/a&gt; &lt;a href=&quot;\nhttp://i.imgur.com/mTCHOol.jpg&quot; rel=&quot;nofollow&quot; target=&quot;_NEW&quot;&gt;\nhttp://i.imgur.com/mTCHOol.jpg&lt;/a&gt; &lt;a href=&quot;\nhttp://i.imgur.com/ocXpfiW.jpg&quot; rel=&quot;nofollow&quot; target=&quot;_NEW&quot;&gt;\nhttp://i.imgur.com/ocXpfiW.jpg&lt;/a&gt; &lt;a href=&quot;\nhttp://i.imgur.com/lTpHHs9.jpg&quot; rel=&quot;nofollow&quot; target=&quot;_NEW&quot;&gt;\nhttp://i.imgur.com/lTpHHs9.jpg&lt;/a&gt;","torrent":{"xt":"urn:btih:38a41f795464837c225d7e58c5d168a19a8d79b2","amp;dn":"syfy+original+Sharktopus+Vs.+Pteracuda+2014+tvrip_jb","amp;tr":["udp%3A%2F%2Ftracker.openbittorrent.com%3A80","udp%3A%2F%2Fopen.demonii.com%3A1337","udp%3A%2F%2Ftracker.coppersurfer.tk%3A6969","udp%3A%2F%2Fexodus.desync.com%3A6969"],"infoHash":"38a41f795464837c225d7e58c5d168a19a8d79b2","infoHashBuffer":{"type":"Buffer","data":[56,164,31,121,84,100,131,124,34,93,126,88,197,209,104,161,154,141,121,178]},"announce":[],"urlList":[]}}